<svg width="842" height="205" viewBox="0 0 842 205" fill="none" xmlns="http://www.w3.org/2000/svg">
<path d="M152.527 67.9725L154.574 71.5009C155.132 72.4313 155.32 73.3559 155.32 74.2862V82.6362C155.32 83.3794 155.689 84.1225 156.253 84.6784C157.555 85.9774 159.603 85.7902 160.718 84.4911L163.699 80.5941C164.444 79.6637 165.746 79.4823 166.679 79.8509L170.218 81.7058C170.963 82.0745 171.708 82.2617 172.453 82.2617C173.756 82.2617 175.059 81.7058 175.992 80.7755L176.737 80.0323C177.294 79.4765 178.227 79.2892 178.972 79.6637L184.74 82.6362C186.231 83.3794 187.158 85.047 187.158 86.7205C187.158 88.7627 185.667 90.6176 183.807 91.1735L176.549 93.0284C175.246 93.397 173.756 93.2156 172.453 92.8411L165.94 90.6117C165.383 90.4245 164.637 90.2431 163.892 90.2431C162.402 90.2431 161.099 90.6117 159.984 91.5421L151.981 97.6686C150.121 98.9676 149 101.197 149 103.421V110.103C149 114.93 152.908 119.015 157.937 119.015H165.752C167.055 119.015 168.17 120.126 168.17 121.425V131.818C168.17 133.86 169.103 135.715 170.775 136.826C173.938 138.869 177.846 138.125 179.712 135.527L184.922 128.476C186.413 126.434 187.34 123.836 187.34 121.238V118.64C187.34 117.897 187.897 117.154 188.642 116.972L189.757 116.785C192.175 116.229 193.853 114 193.853 111.589C193.853 110.103 193.295 108.804 192.363 107.879L185.662 101.197C184.916 100.454 184.916 99.3421 185.662 98.5989C186.776 97.4872 188.455 97.1127 189.945 97.6686L193.295 98.7803C195.343 99.5235 198.136 98.4117 198.694 96.3696C199.251 94.7019 200.929 93.7715 202.602 94.1401L208 95.2519C203.159 77.8029 187.152 65 167.982 65C162.584 65 157.373 65.9304 152.532 67.9725H152.527Z" fill="#50B848"/>
</svg>
