<svg width="842" height="206" viewBox="0 0 842 206" fill="none" xmlns="http://www.w3.org/2000/svg">
<path d="M130 95.6673L132.016 99.1514C133.491 101.908 136.066 103.752 139.201 104.665L151.35 108.149C154.484 109.062 156.501 111.819 156.501 114.948V124.132C156.501 125.975 157.788 127.616 159.449 128.36C161.465 129.273 162.77 131.303 162.77 133.501V141.958C162.77 144.156 164.617 146 166.82 146C170.869 145.628 174.19 142.871 175.105 139.015L175.665 136.444C176.393 133.315 178.427 130.745 181.375 129.087L183.578 127.802C186.339 126.33 188 123.387 188 120.276V117.891C188 115.506 187.085 113.291 185.424 111.65L184.137 110.365C182.476 108.707 180.273 107.794 178.071 107.794H169.056C167.04 107.794 165.007 107.236 163.16 106.136L156.162 102.28C155.247 101.722 154.688 100.995 154.315 100.082C153.756 98.2381 154.501 96.2254 156.331 95.3121L157.433 94.754C158.72 94.0268 160.195 94.0268 161.669 94.3819L166.278 95.8533C167.938 96.4115 169.599 95.8534 170.514 94.3819C171.429 92.9105 171.429 91.067 170.327 89.9677L167.193 86.2976C165.346 84.2849 165.532 81.1561 167.193 79.1265L171.056 74.7123C172.53 72.8688 172.903 70.298 171.615 68.2854L170.886 67H168.87C150.824 67.186 135.371 79.1265 130.034 95.6673H130Z" fill="#50B848"/>
<path d="M210 108.536C210 101.182 208.061 94.2095 204.592 88L198.597 90.2548C195.698 91.3823 194.346 94.4003 195.306 97.4183L199.167 108.727C199.754 110.618 201.284 111.936 203.418 112.491L209.787 114C209.982 112.109 209.982 110.236 209.982 108.536H210Z" fill="#50B848"/>
</svg>
