<svg width="842" height="205" viewBox="0 0 842 205" fill="none" xmlns="http://www.w3.org/2000/svg">
<path d="M127.735 114.016L134.426 115.32C135.727 115.508 137.215 115.132 138.141 114.204L142.23 110.102C144.275 108.239 147.433 108.609 148.733 111.218L150.966 115.879C152.266 118.488 155.612 119.793 158.582 118.488C160.252 117.742 160.996 115.691 160.439 113.828L158.77 108.421C158.026 105.811 159.883 103.202 162.672 103.202H164.529C166.943 103.202 169.175 102.085 170.476 100.034L173.077 96.12C174.009 94.6273 174.009 92.7642 172.889 91.4595L168.8 85.8646C167.13 83.6254 168.243 80.2696 171.032 79.5291L175.866 78.2244C177.166 77.8541 178.098 76.9197 178.655 75.803L182 67.2284C174.753 64.807 166.761 64.2428 158.401 66.1117C148.552 68.3509 139.816 74.4983 134.239 82.8908C127.36 92.9582 125.878 104.142 127.735 114.022V114.016Z" fill="#50B848"/>
<path d="M208 114.781C207.461 114.781 206.921 114.781 206.2 114.972L203.141 115.92C201.88 116.296 200.439 115.729 199.718 114.596L199.36 114.03C198.281 112.139 196.119 111 193.956 111C191.793 111 189.812 112.133 188.552 114.03L187.291 115.92C186.934 116.296 186.57 116.678 186.213 117.053L178.651 121.407C175.41 123.297 174.15 127.269 175.592 130.865L177.209 134.646C178.651 138.243 182.614 139.942 186.031 138.427L187.11 138.052C189.091 137.294 191.254 137.676 192.872 138.809L193.229 139C200.972 132.947 206.195 124.436 207.994 114.787L208 114.781Z" fill="#50B848"/>
<path d="M147.077 124.677C146.725 126.545 147.606 128.629 149.201 129.042L155.21 130.91C156.799 131.323 158.394 130.287 158.923 128.413C159.275 126.545 158.394 124.46 156.799 124.048L150.79 122.18C149.201 121.557 147.428 122.593 147.077 124.677Z" fill="#50B848"/>
<path d="M164.091 121.21C163.674 122.799 164.72 124.572 166.613 124.923C168.5 125.275 170.393 124.394 171.022 122.799L172.909 116.79C173.326 115.201 172.28 113.428 170.387 113.077C168.5 112.725 166.607 113.606 165.978 115.201L164.091 121.21Z" fill="#50B848"/>
<path d="M185.32 79.3051C183.916 78.6036 181.987 79.1284 181.285 80.7081L178.305 86.6626C177.603 88.2369 178.128 89.9934 179.709 90.6949C181.114 91.3964 183.043 90.8716 183.745 89.2919L186.725 83.3374C187.427 81.7631 186.725 80.0066 185.32 79.3051Z" fill="#50B848"/>
</svg>
