<svg width="842" height="205" viewBox="0 0 842 205" fill="none" xmlns="http://www.w3.org/2000/svg">
<path d="M170.748 65L164.112 69.9896C163.008 70.7299 162.456 72.024 162.456 73.318V75.1658C162.456 76.4598 163.56 77.5674 164.85 77.5674C165.402 77.5674 165.774 77.3808 166.14 77.2001L174.432 71.6509C174.798 71.4644 175.356 71.2837 175.722 71.2837H175.908C177.198 71.2837 178.122 72.2105 178.122 73.5045C178.122 74.0583 177.936 74.612 177.57 75.1658L173.514 79.2345C172.41 80.342 171.12 81.0823 169.644 81.636L163.746 83.6703C162.822 83.8569 162.27 84.9644 162.27 85.7047C162.27 86.4449 162.084 87.3659 161.532 88.1062L158.028 91.6211C156.738 92.9152 156 94.5823 156 96.4301V97.3569C156 100.685 158.766 103.273 161.898 103.273C164.112 103.273 166.14 101.979 167.058 100.131L167.796 98.4702C168.348 97.5434 169.272 96.8089 170.376 96.8089C171.3 96.8089 172.032 97.1762 172.59 97.9164L175.908 102.172C176.274 102.725 177.012 103.098 177.75 103.098C179.406 103.098 180.516 101.251 179.778 99.7701L179.592 99.4028C178.854 97.9223 179.592 96.261 181.068 95.888L185.676 94.2267C186.78 93.8595 187.704 92.5654 187.704 91.2655C187.518 89.0447 189.18 87.1969 191.388 87.1969H197.1C198.756 87.1969 200.232 88.6775 200.232 90.3387C200.232 92 198.756 93.4806 197.1 93.4806H193.044C191.568 93.4806 190.278 94.0343 189.174 95.1418L188.25 96.0687C187.884 96.4359 187.698 96.9955 187.698 97.7299C187.698 99.024 188.622 99.9508 189.912 99.9508H192.126C193.23 99.9508 194.52 100.505 195.258 101.245L196.548 102.539C196.914 102.906 197.1 103.466 197.1 103.833C197.1 104.387 196.914 104.76 196.548 105.127L195.072 106.608C194.334 107.348 193.968 108.269 193.968 109.382C193.968 110.495 194.334 111.416 195.072 112.157L198.942 116.039C200.784 117.887 203.364 119 206.13 119H207.972C209.262 114.931 210 110.682 210 106.24C209.814 84.0551 192.492 66.1192 170.742 65.0117L170.748 65Z" fill="#50B848"/>
<path d="M205 125.939C204.248 125.369 203.311 125.177 202.369 125.177C201.244 125.177 199.928 124.607 199.176 123.845L196.356 120.99C195.041 119.467 192.973 118.519 191.095 118.705C189.027 118.897 186.959 118.135 185.271 116.804L179.82 112.047C177.563 110.146 174.749 109 171.928 109H167.23C164.789 109 162.532 109.762 160.464 111.093L154.451 115.088C151.068 117.373 149 121.176 149 125.363V126.695C149 129.928 150.315 133.161 152.573 135.446L156.145 139.063C157.65 140.586 159.901 141.534 162.159 141.534H166.667C169.861 141.534 172.308 144.581 171.176 148C185.834 146.86 198.424 138.295 205 125.933V125.939Z" fill="#50B848"/>
<path d="M155.138 75.9199C153.794 74.6934 151.682 74.6934 150.532 75.9199L144.008 81.8757C142.664 83.1022 142.664 85.0304 144.008 86.0801C145.351 87.3066 147.463 87.3066 148.613 86.0801L155.138 80.1243C156.287 78.8978 156.287 76.9696 155.138 75.9199Z" fill="#50B848"/>
</svg>
