<svg width="842" height="205" viewBox="0 0 842 205" fill="none" xmlns="http://www.w3.org/2000/svg">
<path d="M838.604 136.833C839.978 138.512 840.656 140.632 840.656 143.227C840.656 147.654 837.909 151.368 832.431 154.421C827.105 157.474 821.271 159.831 814.962 161.493C808.636 163.172 802.581 164.003 796.798 164.003C779.125 164.003 765.201 158.864 754.991 148.587C744.781 138.309 739.693 124.249 739.693 106.441C739.693 95.0269 741.932 84.8848 746.427 76.0486C750.921 67.2125 757.247 60.3606 765.388 55.4931C773.529 50.6256 782.789 48.1833 793.151 48.1833C808.076 48.1833 819.88 52.983 828.564 62.5824C837.247 72.1817 841.589 85.1222 841.589 101.421C841.589 107.509 838.842 110.562 833.364 110.562H762.776C764.302 134.171 775.649 145.975 796.815 145.975C802.445 145.975 807.33 145.212 811.434 143.685C815.539 142.159 819.88 140.191 824.46 137.749C824.917 137.444 826.172 136.799 828.225 135.799C830.277 134.815 831.99 134.306 833.364 134.306C835.5 134.306 837.247 135.137 838.621 136.816L838.604 136.833ZM772.358 73.5555C767.033 79.1862 763.828 87.1066 762.759 97.3165H821.695C821.237 86.9539 818.608 78.9997 813.809 73.4368C809.009 67.8739 802.276 65.0925 793.592 65.0925C784.909 65.0925 777.667 67.9078 772.341 73.5385L772.358 73.5555Z" fill="white"/>
<path d="M706.367 160.832C704.162 159 703.06 156.252 703.06 152.606V11.431C703.06 7.76767 704.162 5.00319 706.367 3.08671C708.572 1.18719 711.353 0.237427 714.711 0.237427C718.069 0.237427 720.8 1.18719 722.937 3.08671C725.074 4.98623 726.142 7.76767 726.142 11.431V152.606C726.142 156.252 725.074 159 722.937 160.832C720.8 162.663 718.053 163.579 714.711 163.579C711.37 163.579 708.572 162.663 706.367 160.832Z" fill="white"/>
<path d="M616.818 156.948C608.677 152.233 602.351 145.534 597.857 136.85C593.363 128.167 591.124 118.109 591.124 106.695C591.124 95.2813 593.447 84.9187 598.094 76.0826C602.741 67.2464 609.254 60.3946 617.632 55.5271C626.011 50.6595 635.61 48.2173 646.413 48.2173C652.197 48.2173 658.031 49.0483 663.882 50.7274C669.75 52.4064 674.957 54.696 679.536 57.5792C684.404 60.9373 686.846 64.8211 686.846 69.2307C686.846 71.8256 686.168 73.9965 684.794 75.7434C683.42 77.4902 681.673 78.3722 679.536 78.3722C678.163 78.3722 676.789 78.033 675.432 77.3546C674.058 76.6762 672.311 75.6416 670.174 74.2678C666.358 71.8256 662.831 69.96 659.557 68.6711C656.284 67.3821 652.366 66.7206 647.787 66.7206C637.425 66.7206 629.403 70.2314 623.687 77.2358C617.972 84.2403 615.122 93.9923 615.122 106.475C615.122 118.957 617.938 128.591 623.568 135.375C629.199 142.159 637.204 145.551 647.55 145.551C652.112 145.551 656.148 144.872 659.659 143.499C663.153 142.125 666.748 140.293 670.395 138.02C672.074 136.952 673.736 136.036 675.415 135.273C677.094 134.51 678.62 134.137 679.994 134.137C682.131 134.137 683.878 135.019 685.252 136.765C686.626 138.512 687.304 140.683 687.304 143.278C687.304 145.415 686.727 147.348 685.591 149.095C684.455 150.842 682.504 152.64 679.757 154.472C675.195 157.524 669.852 159.882 663.763 161.544C657.675 163.223 651.501 164.054 645.26 164.054C634.44 164.054 624.959 161.697 616.818 156.982V156.948Z" fill="white"/>
<path d="M554.338 22.6246C551.743 20.1824 550.454 16.9939 550.454 13.0253C550.454 9.05664 551.743 5.90208 554.338 3.54464C556.932 1.1872 560.426 0 564.853 0C569.279 0 572.587 1.1872 575.249 3.54464C577.912 5.90208 579.252 9.0736 579.252 13.0253C579.252 16.977 577.963 20.1824 575.368 22.6246C572.773 25.0669 569.279 26.271 564.853 26.271C560.426 26.271 556.932 25.0499 554.338 22.6246ZM556.508 160.832C554.304 159 553.201 156.252 553.201 152.606V59.8518C553.201 56.1885 554.304 53.424 556.508 51.5075C558.713 49.608 561.495 48.6582 564.853 48.6582C568.211 48.6582 570.941 49.608 573.078 51.5075C575.215 53.407 576.284 56.1885 576.284 59.8518V152.606C576.284 156.252 575.215 159 573.078 160.832C570.941 162.663 568.194 163.579 564.853 163.579C561.512 163.579 558.713 162.663 556.508 160.832Z" fill="white"/>
<path d="M543.822 58.0201C543.822 61.3782 542.991 63.8883 541.312 65.5673C539.633 67.2464 536.733 68.2301 532.629 68.5353L525.777 69.2137C516.178 70.1296 509.054 73.4707 504.424 79.271C499.777 85.0544 497.454 92.0589 497.454 100.284V152.606C497.454 156.252 496.385 159 494.248 160.832C492.111 162.663 489.364 163.579 486.023 163.579C482.682 163.579 479.883 162.663 477.678 160.832C475.474 159 474.371 156.252 474.371 152.606V59.6313C474.371 56.1376 475.474 53.424 477.678 51.5245C479.883 49.6249 482.665 48.6752 486.023 48.6752C489.076 48.6752 491.62 49.6249 493.672 51.5245C495.724 53.424 496.758 56.0528 496.758 59.4109V70.384C499.811 63.6848 504.221 58.5798 510.004 55.0861C515.788 51.5923 522.334 49.5232 529.644 48.9126L532.849 48.6752C540.159 48.2173 543.822 51.3379 543.822 58.0371V58.0201Z" fill="white"/>
<path d="M458.31 136.833C459.684 138.512 460.362 140.632 460.362 143.227C460.362 147.654 457.615 151.368 452.137 154.421C446.794 157.474 440.977 159.831 434.651 161.493C428.325 163.172 422.287 164.003 416.487 164.003C398.814 164.003 384.873 158.864 374.68 148.587C364.47 138.309 359.382 124.249 359.382 106.441C359.382 95.0269 361.621 84.8848 366.116 76.0486C370.61 67.2125 376.919 60.3606 385.077 55.4931C393.218 50.6256 402.478 48.1833 412.84 48.1833C427.765 48.1833 439.569 52.983 448.253 62.5824C456.936 72.1817 461.278 85.1222 461.278 101.421C461.278 107.509 458.531 110.562 453.052 110.562H382.465C383.991 134.171 395.338 145.975 416.504 145.975C422.134 145.975 427.002 145.212 431.123 143.685C435.228 142.159 439.569 140.191 444.148 137.749C444.606 137.444 445.861 136.799 447.914 135.799C449.966 134.815 451.679 134.306 453.052 134.306C455.189 134.306 456.936 135.137 458.31 136.816V136.833ZM392.064 73.5555C386.739 79.1862 383.533 87.1066 382.465 97.3165H441.401C440.943 86.9539 438.314 78.9997 433.515 73.4368C428.715 67.8739 421.982 65.0925 413.298 65.0925C404.615 65.0925 397.39 67.9078 392.047 73.5385L392.064 73.5555Z" fill="white"/>
<path d="M344.034 93.2122V152.606C344.034 155.964 342.965 158.627 340.828 160.594C338.691 162.579 335.876 163.562 332.382 163.562C328.888 163.562 326.107 162.579 324.038 160.594C321.986 158.61 320.951 155.947 320.951 152.606V93.4326C320.951 84.2912 319.085 77.592 315.354 73.335C311.623 69.0781 305.789 66.9411 297.885 66.9411C288.591 66.9411 281.129 69.8413 275.498 75.6246C269.868 81.408 267.052 89.1757 267.052 98.9277V152.606C267.052 155.964 266.018 158.627 263.965 160.594C261.913 162.579 259.132 163.562 255.621 163.562C252.11 163.562 249.295 162.579 247.175 160.594C245.038 158.61 243.97 155.947 243.97 152.606V11.1936C243.97 7.85247 245.072 5.17279 247.277 3.20543C249.482 1.22111 252.331 0.237427 255.842 0.237427C259.352 0.237427 261.896 1.18719 263.948 3.08671C266.001 4.98623 267.035 7.54719 267.035 10.7357V67.84C270.834 61.4461 275.939 56.5786 282.333 53.2205C288.727 49.8794 296.037 48.2003 304.262 48.2003C330.754 48.2003 344.017 63.2099 344.017 93.2122H344.034Z" fill="white"/>
<path d="M168.362 45.4019C153.03 45.4019 139.021 51.0157 128.235 60.2758V59.8518C128.235 56.5107 127.166 53.7971 125.029 51.745C122.892 49.6928 120.162 48.6582 116.804 48.6582C113.445 48.6582 110.477 49.6928 108.357 51.745C106.22 53.7971 105.152 56.5107 105.152 59.8518V193.717C105.152 197.058 106.254 199.738 108.459 201.722C110.664 203.707 113.513 204.69 117.024 204.69C120.535 204.69 123.079 203.74 125.131 201.841C127.183 199.941 128.218 197.38 128.218 194.192V153.692C138.987 162.952 153.013 168.565 168.345 168.565C202.367 168.565 229.927 141.005 229.927 106.984C229.927 72.9619 202.367 45.4019 168.345 45.4019H168.362Z" fill="white"/>
<path d="M7.53024 154.438C4.78272 152.759 2.84928 151.012 1.71296 149.18C0.576637 147.348 0 145.296 0 143.007C0 140.564 0.678398 138.512 2.05216 136.833C3.42592 135.154 5.1728 134.323 7.30976 134.323C9.29408 134.323 12.4147 135.544 16.6717 137.987C21.2339 140.429 25.6944 142.413 30.0362 143.923C34.3779 145.449 39.8221 146.212 46.3686 146.212C53.6784 146.212 59.3939 144.923 63.4982 142.328C67.6026 139.733 69.6717 136.087 69.6717 131.355C69.6717 128.302 68.8746 125.877 67.2803 124.045C65.6861 122.214 62.9046 120.586 58.936 119.127C54.9674 117.685 49.1162 116.125 41.3485 114.446C27.9501 111.563 18.3168 107.628 12.4486 102.676C6.58048 97.7235 3.6464 90.9904 3.6464 82.4595C3.6464 75.9129 5.54591 70.0109 9.36191 64.7533C13.161 59.4957 18.4186 55.4253 25.1178 52.5251C31.817 49.6419 39.432 48.1833 47.9629 48.1833C54.0515 48.1833 59.9875 48.9805 65.7878 50.5747C71.5712 52.169 76.6762 54.4925 81.0858 57.5453C86.1059 60.9033 88.633 64.7872 88.633 69.1968C88.633 71.639 87.9037 73.6912 86.4621 75.3702C85.0205 77.0493 83.3075 77.8803 81.3232 77.8803C79.9494 77.8803 78.5757 77.575 77.2189 76.9645C75.8451 76.3539 74.0134 75.3702 71.7408 73.9965C67.6365 71.5542 63.7866 69.6547 60.208 68.2809C56.6294 66.9072 52.169 66.2288 46.8435 66.2288C40.4496 66.2288 35.3107 67.6025 31.4269 70.3331C27.543 73.0806 25.5926 76.8118 25.5926 81.5267C25.5926 85.7837 27.3734 89.1078 30.969 91.4653C34.5475 93.8227 41.2806 96.0784 51.1853 98.1984C61.3952 100.335 69.3834 102.761 75.1667 105.508C80.9501 108.256 85.1053 111.648 87.6154 115.667C90.1254 119.704 91.3805 124.843 91.3805 131.084C91.3805 140.988 87.2253 148.943 78.9318 154.947C70.6384 160.967 59.5466 163.969 45.6902 163.969C30.1549 163.969 17.4349 160.781 7.5472 154.37L7.53024 154.438Z" fill="white"/>
<path d="M168.5 151C193.077 151 213 131.077 213 106.5C213 81.9233 193.077 62 168.5 62C143.923 62 124 81.9233 124 106.5C124 131.077 143.923 151 168.5 151Z" fill="#91D2E4"/>
</svg>
