<?xml version="1.0" encoding="UTF-8"?>
<svg id="Layer_1" data-name="Layer 1" xmlns="http://www.w3.org/2000/svg" viewBox="0 0 216 216">
  <defs>
    <style>
      .cls-1 {
        fill: #a3ddf9;
      }

      .cls-2 {
        fill: #50b848;
      }
    </style>
  </defs>
  <circle cx="108" cy="108" r="99.43"/>
  <circle class="cls-1" cx="108" cy="108" r="76.48"/>
  <path class="cls-2" d="m38.53,121.32l11.42,2.22c2.22.32,4.76-.32,6.34-1.9l6.98-6.98c3.49-3.17,8.88-2.54,11.1,1.9l3.81,7.93c2.22,4.44,7.93,6.66,13,4.44,2.85-1.27,4.12-4.76,3.17-7.93l-2.85-9.2c-1.27-4.44,1.9-8.88,6.66-8.88h3.17c4.12,0,7.93-1.9,10.15-5.39l4.44-6.66c1.59-2.54,1.59-5.71-.32-7.93l-6.98-9.52c-2.85-3.81-.95-9.52,3.81-10.78l8.25-2.22c2.22-.63,3.81-2.22,4.76-4.12l5.71-14.59c-12.37-4.12-26.01-5.08-40.28-1.9-16.81,3.81-31.72,14.27-41.24,28.55-11.74,17.13-14.27,36.16-11.1,52.97Z"/>
  <path class="cls-2" d="m176.83,122.91c-.95,0-1.9,0-3.17.32l-5.39,1.59c-2.22.63-4.76-.32-6.03-2.22l-.63-.95c-1.9-3.17-5.71-5.08-9.52-5.08s-7.3,1.9-9.52,5.08l-2.22,3.17c-.63.63-1.27,1.27-1.9,1.9l-13.32,7.3c-5.71,3.17-7.93,9.83-5.39,15.86l2.85,6.34c2.54,6.03,9.52,8.88,15.54,6.34l1.9-.63c3.49-1.27,7.3-.63,10.15,1.27l.63.32c13.64-10.15,22.84-24.42,26.01-40.6h0Z"/>
  <path class="cls-2" d="m69.94,139.4c-.63,2.85.95,6.03,3.81,6.66l10.78,2.85c2.85.63,5.71-.95,6.66-3.81.63-2.85-.95-6.03-3.81-6.66l-10.78-2.85c-2.85-.95-6.03.63-6.66,3.81Z"/>
  <path class="cls-2" d="m101.34,132.42c-.63,2.85.95,6.03,3.81,6.66,2.85.63,5.71-.95,6.66-3.81l2.85-10.78c.63-2.85-.95-6.03-3.81-6.66-2.85-.63-5.71.95-6.66,3.81l-2.85,10.78Z"/>
  <path class="cls-2" d="m137.5,59.79c-2.54-1.27-6.03-.32-7.3,2.54l-5.39,10.78c-1.27,2.85-.32,6.03,2.54,7.3,2.54,1.27,6.03.32,7.3-2.54l5.39-10.78c1.27-2.85,0-6.03-2.54-7.3Z"/>
</svg>