<svg width="498" height="122" viewBox="0 0 498 122" fill="none" xmlns="http://www.w3.org/2000/svg">
<path d="M77.1 56.31L78.29 58.37C79.16 60 80.68 61.09 82.53 61.63L89.7 63.69C91.55 64.23 92.74 65.86 92.74 67.71V73.14C92.74 74.23 93.5 75.2 94.48 75.64C95.67 76.18 96.44 77.38 96.44 78.68V83.68C96.44 84.98 97.53 86.07 98.83 86.07C101.22 85.85 103.18 84.22 103.72 81.94L104.05 80.42C104.48 78.57 105.68 77.05 107.42 76.07L108.72 75.31C110.35 74.44 111.33 72.7 111.33 70.86V69.45C111.33 68.04 110.79 66.73 109.81 65.76L109.05 65C108.07 64.02 106.77 63.48 105.47 63.48H100.15C98.96 63.48 97.76 63.15 96.67 62.5L92.54 60.22C92 59.89 91.67 59.46 91.45 58.92C91.12 57.83 91.56 56.64 92.64 56.1L93.29 55.77C94.05 55.34 94.92 55.34 95.79 55.55L98.51 56.42C99.49 56.75 100.47 56.42 101.01 55.55C101.55 54.68 101.55 53.59 100.9 52.94L99.05 50.77C97.96 49.58 98.07 47.73 99.05 46.53L101.33 43.92C102.2 42.83 102.42 41.31 101.66 40.12L101.23 39.36H100.04C89.39 39.47 80.27 46.53 77.12 56.31H77.1Z" fill="#50B848"/>
<path d="M124.35 63.69C124.35 59.45 123.26 55.43 121.31 51.85L117.94 53.15C116.31 53.8 115.55 55.54 116.09 57.28L118.26 63.8C118.59 64.89 119.45 65.65 120.65 65.97L124.23 66.84C124.34 65.75 124.34 64.67 124.34 63.69H124.35Z" fill="#50B848"/>
</svg>
