<?xml version="1.0" encoding="UTF-8"?>
<svg id="Layer_1" data-name="Layer 1" xmlns="http://www.w3.org/2000/svg" viewBox="38 50 500 125">
  <defs>
    <style>
      .cls-1 {
        fill: #a3ddf9;
      }

      .cls-2 {
        fill: #000000;
      }

      .cls-3 {
        fill: #50b848;
      }

      .cls-4 {
        isolation: isolate;
      }
    </style>
  </defs>
  <g>
    <g class="cls-4">
      <path class="cls-2" d="m44.34,143.72c-1.62-.99-2.76-2.02-3.43-3.1s-1.01-2.29-1.01-3.64c0-1.44.4-2.65,1.21-3.64.81-.99,1.84-1.48,3.1-1.48,1.17,0,3.01.72,5.52,2.16,2.69,1.44,5.32,2.61,7.88,3.5,2.56.9,5.77,1.35,9.63,1.35,4.31,0,7.68-.76,10.1-2.29,2.42-1.53,3.64-3.68,3.64-6.47,0-1.8-.47-3.23-1.41-4.31s-2.58-2.04-4.92-2.9c-2.34-.85-5.79-1.77-10.37-2.76-7.9-1.7-13.58-4.02-17.04-6.94-3.46-2.92-5.19-6.89-5.19-11.92,0-3.86,1.12-7.34,3.37-10.44,2.24-3.1,5.34-5.5,9.29-7.21,3.95-1.7,8.44-2.56,13.47-2.56,3.59,0,7.09.47,10.51,1.41,3.41.94,6.42,2.31,9.02,4.11,2.96,1.98,4.45,4.27,4.45,6.87,0,1.44-.43,2.65-1.28,3.64-.85.99-1.86,1.48-3.03,1.48-.81,0-1.62-.18-2.42-.54-.81-.36-1.89-.94-3.23-1.75-2.42-1.44-4.69-2.56-6.8-3.37-2.11-.81-4.74-1.21-7.88-1.21-3.77,0-6.8.81-9.09,2.42-2.29,1.62-3.44,3.82-3.44,6.6,0,2.51,1.05,4.47,3.17,5.86,2.11,1.39,6.08,2.72,11.92,3.97,6.02,1.26,10.73,2.69,14.14,4.31,3.41,1.62,5.86,3.62,7.34,5.99,1.48,2.38,2.22,5.41,2.22,9.09,0,5.84-2.45,10.53-7.34,14.07-4.89,3.55-11.43,5.32-19.6,5.32-9.16,0-16.66-1.88-22.49-5.66Z"/>
    </g>
    <path class="cls-2" d="m242.75,107.62v35.02c0,1.98-.63,3.55-1.89,4.71-1.26,1.17-2.92,1.75-4.98,1.75s-3.7-.58-4.92-1.75c-1.21-1.17-1.82-2.74-1.82-4.71v-34.89c0-5.39-1.1-9.34-3.3-11.85-2.2-2.51-5.64-3.77-10.3-3.77-5.48,0-9.88,1.71-13.2,5.12-3.32,3.41-4.98,7.99-4.98,13.74v31.65c0,1.98-.61,3.55-1.82,4.71-1.21,1.17-2.85,1.75-4.92,1.75s-3.73-.58-4.98-1.75c-1.26-1.17-1.89-2.74-1.89-4.71V59.26c0-1.97.65-3.55,1.95-4.71,1.3-1.17,2.98-1.75,5.05-1.75s3.57.56,4.78,1.68c1.21,1.12,1.82,2.63,1.82,4.51v33.67c2.24-3.77,5.25-6.64,9.02-8.62,3.77-1.97,8.08-2.96,12.93-2.96,15.62,0,23.44,8.85,23.44,26.54Z"/>
    <path class="cls-2" d="m310.13,133.34c.81.99,1.21,2.24,1.21,3.77,0,2.61-1.62,4.8-4.85,6.6-3.15,1.8-6.58,3.19-10.31,4.17-3.73.99-7.29,1.48-10.71,1.48-10.42,0-18.64-3.03-24.65-9.09-6.02-6.06-9.02-14.35-9.02-24.85,0-6.73,1.32-12.71,3.97-17.92,2.65-5.21,6.37-9.25,11.18-12.12,4.8-2.87,10.26-4.31,16.37-4.31,8.8,0,15.76,2.83,20.88,8.49,5.12,5.66,7.68,13.29,7.68,22.9,0,3.59-1.62,5.39-4.85,5.39h-41.62c.9,13.92,7.59,20.88,20.07,20.88,3.32,0,6.19-.45,8.62-1.35,2.42-.9,4.98-2.06,7.68-3.5.27-.18,1.01-.56,2.22-1.15,1.21-.58,2.22-.88,3.03-.88,1.26,0,2.29.49,3.1,1.48Zm-39.06-37.31c-3.14,3.32-5.03,7.99-5.66,14.01h34.75c-.27-6.11-1.82-10.8-4.65-14.08-2.83-3.28-6.8-4.92-11.92-4.92s-9.38,1.66-12.53,4.98Z"/>
    <path class="cls-2" d="m360.55,86.87c0,1.98-.49,3.46-1.48,4.45-.99.99-2.7,1.57-5.12,1.75l-4.04.4c-5.66.54-9.86,2.51-12.59,5.93-2.74,3.41-4.11,7.54-4.11,12.39v30.85c0,2.15-.63,3.77-1.89,4.85-1.26,1.08-2.88,1.62-4.85,1.62s-3.62-.54-4.92-1.62c-1.3-1.08-1.95-2.7-1.95-4.85v-54.82c0-2.06.65-3.66,1.95-4.78,1.3-1.12,2.94-1.68,4.92-1.68,1.8,0,3.3.56,4.51,1.68,1.21,1.12,1.82,2.67,1.82,4.65v6.47c1.8-3.95,4.4-6.96,7.81-9.02,3.41-2.06,7.27-3.28,11.58-3.64l1.89-.14c4.31-.27,6.47,1.57,6.47,5.52Z"/>
    <path class="cls-2" d="m366.75,66c-1.53-1.44-2.29-3.32-2.29-5.66s.76-4.2,2.29-5.59c1.53-1.39,3.59-2.09,6.2-2.09s4.56.7,6.13,2.09c1.57,1.39,2.36,3.26,2.36,5.59s-.76,4.22-2.29,5.66c-1.53,1.44-3.59,2.15-6.2,2.15s-4.67-.72-6.2-2.15Zm1.28,81.49c-1.3-1.08-1.95-2.7-1.95-4.85v-54.69c0-2.16.65-3.79,1.95-4.92,1.3-1.12,2.94-1.68,4.92-1.68s3.59.56,4.85,1.68c1.26,1.12,1.89,2.76,1.89,4.92v54.69c0,2.15-.63,3.77-1.89,4.85-1.26,1.08-2.88,1.62-4.85,1.62s-3.62-.54-4.92-1.62Z"/>
    <path class="cls-2" d="m403.59,145.2c-4.8-2.78-8.53-6.73-11.18-11.85-2.65-5.12-3.97-11.05-3.97-17.78s1.37-12.84,4.11-18.05c2.74-5.21,6.58-9.25,11.52-12.12,4.94-2.87,10.6-4.31,16.97-4.31,3.41,0,6.85.49,10.3,1.48,3.46.99,6.53,2.34,9.23,4.04,2.87,1.98,4.31,4.27,4.31,6.87,0,1.53-.4,2.81-1.21,3.84-.81,1.03-1.84,1.55-3.1,1.55-.81,0-1.62-.2-2.42-.6-.81-.4-1.84-1.01-3.1-1.82-2.25-1.44-4.33-2.54-6.26-3.3-1.93-.76-4.24-1.15-6.94-1.15-6.11,0-10.84,2.07-14.21,6.2-3.37,4.13-5.05,9.88-5.05,17.24s1.66,13.04,4.98,17.04c3.32,4,8.04,6,14.14,6,2.69,0,5.07-.4,7.14-1.21,2.06-.81,4.18-1.89,6.33-3.23.99-.63,1.97-1.17,2.96-1.62.99-.45,1.89-.67,2.7-.67,1.26,0,2.29.52,3.1,1.55.81,1.03,1.21,2.31,1.21,3.84,0,1.26-.34,2.4-1.01,3.43-.67,1.03-1.82,2.09-3.44,3.17-2.69,1.8-5.84,3.19-9.43,4.17-3.59.99-7.23,1.48-10.91,1.48-6.38,0-11.97-1.39-16.77-4.17Z"/>
    <path class="cls-2" d="m456.39,147.49c-1.3-1.08-1.95-2.7-1.95-4.85V59.4c0-2.16.65-3.79,1.95-4.92,1.3-1.12,2.94-1.68,4.92-1.68s3.59.56,4.85,1.68c1.26,1.12,1.89,2.76,1.89,4.92v83.24c0,2.15-.63,3.77-1.89,4.85-1.26,1.08-2.88,1.62-4.85,1.62s-3.62-.54-4.92-1.62Z"/>
    <path class="cls-2" d="m534.36,133.34c.81.99,1.21,2.24,1.21,3.77,0,2.61-1.62,4.8-4.85,6.6-3.14,1.8-6.58,3.19-10.3,4.17-3.73.99-7.3,1.48-10.71,1.48-10.42,0-18.63-3.03-24.65-9.09-6.02-6.06-9.02-14.35-9.02-24.85,0-6.73,1.32-12.71,3.97-17.92,2.65-5.21,6.38-9.25,11.18-12.12,4.8-2.87,10.26-4.31,16.37-4.31,8.8,0,15.76,2.83,20.88,8.49s7.68,13.29,7.68,22.9c0,3.59-1.62,5.39-4.85,5.39h-41.62c.9,13.92,7.59,20.88,20.07,20.88,3.32,0,6.2-.45,8.62-1.35,2.42-.9,4.98-2.06,7.68-3.5.27-.18,1.01-.56,2.22-1.15,1.21-.58,2.22-.88,3.03-.88,1.26,0,2.29.49,3.1,1.48Zm-39.06-37.31c-3.14,3.32-5.03,7.99-5.66,14.01h34.75c-.27-6.11-1.82-10.8-4.65-14.08-2.83-3.28-6.8-4.92-11.92-4.92s-9.39,1.66-12.53,4.98Z"/>
    <path class="cls-2" d="m139.17,79.43c-9.04,0-17.3,3.31-23.66,8.77v-.25c0-1.97-.63-3.57-1.89-4.78-1.26-1.21-2.87-1.82-4.85-1.82s-3.73.61-4.98,1.82c-1.26,1.21-1.89,2.81-1.89,4.78v78.93c0,1.97.65,3.55,1.95,4.72,1.3,1.17,2.98,1.75,5.05,1.75s3.57-.56,4.78-1.68c1.21-1.12,1.82-2.63,1.82-4.51v-23.88c6.35,5.46,14.62,8.77,23.66,8.77,20.06,0,36.31-16.25,36.31-36.31s-16.25-36.31-36.31-36.31Zm0,62.15c-14.19,0-25.84-11.5-25.84-25.84s11.65-25.84,25.84-25.84,25.84,11.5,25.84,25.84-11.5,25.84-25.84,25.84Z"/>
  </g>
  <g>
    <circle class="cls-1" cx="139.13" cy="115.69" r="26.19"/>
    <path class="cls-3" d="m116.1,108.31l1.19,2.06c.87,1.63,2.39,2.72,4.24,3.26l7.17,2.06c1.85.54,3.04,2.17,3.04,4.02v5.43c0,1.09.76,2.06,1.74,2.5,1.19.54,1.96,1.74,1.96,3.04v5c0,1.3,1.09,2.39,2.39,2.39,2.39-.22,4.35-1.85,4.89-4.13l.33-1.52c.43-1.85,1.63-3.37,3.37-4.35l1.3-.76c1.63-.87,2.61-2.61,2.61-4.45v-1.41c0-1.41-.54-2.72-1.52-3.69l-.76-.76c-.98-.98-2.28-1.52-3.58-1.52h-5.32c-1.19,0-2.39-.33-3.48-.98l-4.13-2.28c-.54-.33-.87-.76-1.09-1.3-.33-1.09.11-2.28,1.19-2.82l.65-.33c.76-.43,1.63-.43,2.5-.22l2.72.87c.98.33,1.96,0,2.5-.87s.54-1.96-.11-2.61l-1.85-2.17c-1.09-1.19-.98-3.04,0-4.24l2.28-2.61c.87-1.09,1.09-2.61.33-3.8l-.43-.76h-1.19c-10.65.11-19.77,7.17-22.92,16.95Z"/>
    <path class="cls-3" d="m163.35,115.69c0-4.24-1.09-8.26-3.04-11.84l-3.37,1.3c-1.63.65-2.39,2.39-1.85,4.13l2.17,6.52c.33,1.09,1.19,1.85,2.39,2.17l3.58.87c.11-1.09.11-2.17.11-3.15h0Z"/>
  </g>
</svg>
