<svg width="498" height="122" viewBox="0 0 498 122" fill="none" xmlns="http://www.w3.org/2000/svg">
<path d="M101.32 39.47L97.41 42.4C96.76 42.83 96.43 43.59 96.43 44.36V45.45C96.43 46.21 97.08 46.86 97.84 46.86C98.17 46.86 98.38 46.75 98.6 46.64L103.49 43.38C103.71 43.27 104.03 43.16 104.25 43.16H104.36C105.12 43.16 105.66 43.7 105.66 44.46C105.66 44.79 105.55 45.11 105.33 45.44L102.94 47.83C102.29 48.48 101.53 48.92 100.66 49.24L97.18 50.43C96.64 50.54 96.31 51.19 96.31 51.62C96.31 52.05 96.2 52.6 95.88 53.03L93.82 55.09C93.06 55.85 92.63 56.83 92.63 57.91V58.45C92.63 60.41 94.26 61.93 96.11 61.93C97.41 61.93 98.61 61.17 99.15 60.08L99.58 59.1C99.91 58.56 100.45 58.12 101.1 58.12C101.64 58.12 102.08 58.34 102.4 58.77L104.36 61.27C104.58 61.6 105.01 61.81 105.45 61.81C106.43 61.81 107.08 60.72 106.64 59.85L106.53 59.63C106.1 58.76 106.53 57.78 107.4 57.57L110.12 56.59C110.77 56.37 111.31 55.61 111.31 54.85C111.2 53.55 112.18 52.46 113.48 52.46H116.85C117.83 52.46 118.7 53.33 118.7 54.31C118.7 55.29 117.83 56.16 116.85 56.16H114.46C113.59 56.16 112.83 56.49 112.18 57.14L111.64 57.68C111.42 57.9 111.31 58.22 111.31 58.66C111.31 59.42 111.85 59.96 112.61 59.96H113.91C114.56 59.96 115.32 60.29 115.76 60.72L116.52 61.48C116.74 61.7 116.85 62.02 116.85 62.24C116.85 62.57 116.74 62.78 116.52 63L115.65 63.87C115.22 64.3 115 64.85 115 65.5C115 66.15 115.22 66.69 115.65 67.13L117.93 69.41C119.02 70.5 120.54 71.15 122.17 71.15H123.26C124.02 68.76 124.45 66.26 124.45 63.65C124.34 50.61 114.13 40.08 101.31 39.42L101.32 39.47Z" fill="#50B848"/>
<path d="M121.31 75.32C120.88 74.99 120.33 74.89 119.79 74.89C119.14 74.89 118.38 74.56 117.94 74.13L116.31 72.5C115.55 71.63 114.35 71.09 113.27 71.2C112.08 71.31 110.88 70.87 109.9 70.11L106.75 67.39C105.45 66.3 103.82 65.65 102.19 65.65H99.47C98.06 65.65 96.75 66.08 95.56 66.84L92.08 69.12C90.12 70.42 88.93 72.6 88.93 74.99V75.75C88.93 77.6 89.69 79.44 90.99 80.75L93.05 82.81C93.92 83.68 95.22 84.22 96.53 84.22H99.14C100.99 84.22 102.4 85.96 101.75 87.91C110.22 87.26 117.5 82.37 121.3 75.31L121.31 75.32Z" fill="#50B848"/>
<path d="M92.2 45.66C91.44 44.9 90.24 44.9 89.59 45.66L85.9 49.35C85.14 50.11 85.14 51.31 85.9 51.96C86.66 52.72 87.86 52.72 88.51 51.96L92.2 48.27C92.85 47.51 92.85 46.31 92.2 45.66Z" fill="#50B848"/>
</svg>
