<svg width="498" height="122" viewBox="0 0 498 122" fill="none" xmlns="http://www.w3.org/2000/svg">
<g clip-path="url(#clip0_11_118)">
<path d="M5.33999 91.72C3.71999 90.73 2.57999 89.7 1.90999 88.62C1.23999 87.54 0.899994 86.33 0.899994 84.98C0.899994 83.54 1.29999 82.33 2.10999 81.34C2.91999 80.35 3.94999 79.86 5.20999 79.86C6.37999 79.86 8.21999 80.58 10.73 82.02C13.42 83.46 16.05 84.63 18.61 85.52C21.17 86.42 24.38 86.87 28.24 86.87C32.55 86.87 35.92 86.11 38.34 84.58C40.76 83.05 41.98 80.9 41.98 78.11C41.98 76.31 41.51 74.88 40.57 73.8C39.63 72.72 37.99 71.76 35.65 70.9C33.31 70.05 29.86 69.13 25.28 68.14C17.38 66.44 11.7 64.12 8.23999 61.2C4.77999 58.28 3.04999 54.31 3.04999 49.28C3.04999 45.42 4.16999 41.94 6.41999 38.84C8.65999 35.74 11.76 33.34 15.71 31.63C19.66 29.93 24.15 29.07 29.18 29.07C32.77 29.07 36.27 29.54 39.69 30.48C43.1 31.42 46.11 32.79 48.71 34.59C51.67 36.57 53.16 38.86 53.16 41.46C53.16 42.9 52.73 44.11 51.88 45.1C51.03 46.09 50.02 46.58 48.85 46.58C48.04 46.58 47.23 46.4 46.43 46.04C45.62 45.68 44.54 45.1 43.2 44.29C40.78 42.85 38.51 41.73 36.4 40.92C34.29 40.11 31.66 39.71 28.52 39.71C24.75 39.71 21.72 40.52 19.43 42.13C17.14 43.75 15.99 45.95 15.99 48.73C15.99 51.24 17.04 53.2 19.16 54.59C21.27 55.98 25.24 57.31 31.08 58.56C37.1 59.82 41.81 61.25 45.22 62.87C48.63 64.49 51.08 66.49 52.56 68.86C54.04 71.24 54.78 74.27 54.78 77.95C54.78 83.79 52.33 88.48 47.44 92.02C42.55 95.57 36.01 97.34 27.84 97.34C18.68 97.34 11.18 95.46 5.34999 91.68L5.33999 91.72Z" fill="white"/>
<path d="M203.75 55.62V90.64C203.75 92.62 203.12 94.19 201.86 95.35C200.6 96.52 198.94 97.1 196.88 97.1C194.82 97.1 193.18 96.52 191.96 95.35C190.75 94.18 190.14 92.61 190.14 90.64V55.75C190.14 50.36 189.04 46.41 186.84 43.9C184.64 41.39 181.2 40.13 176.54 40.13C171.06 40.13 166.66 41.84 163.34 45.25C160.02 48.66 158.36 53.24 158.36 58.99V90.64C158.36 92.62 157.75 94.19 156.54 95.35C155.33 96.52 153.69 97.1 151.62 97.1C149.55 97.1 147.89 96.52 146.64 95.35C145.38 94.18 144.75 92.61 144.75 90.64V7.25999C144.75 5.28999 145.4 3.70999 146.7 2.54999C148 1.37999 149.68 0.799988 151.75 0.799988C153.82 0.799988 155.32 1.35999 156.53 2.47999C157.74 3.59999 158.35 5.10999 158.35 6.98999V40.66C160.59 36.89 163.6 34.02 167.37 32.04C171.14 30.07 175.45 29.08 180.3 29.08C195.92 29.08 203.74 37.93 203.74 55.62H203.75Z" fill="white"/>
<path d="M271.13 81.3399C271.94 82.3299 272.34 83.5799 272.34 85.1099C272.34 87.7199 270.72 89.91 267.49 91.71C264.34 93.51 260.91 94.9 257.18 95.88C253.45 96.87 249.89 97.3599 246.47 97.3599C236.05 97.3599 227.83 94.33 221.82 88.27C215.8 82.21 212.8 73.9199 212.8 63.4199C212.8 56.6899 214.12 50.7099 216.77 45.4999C219.42 40.2899 223.14 36.2499 227.95 33.3799C232.75 30.5099 238.21 29.0699 244.32 29.0699C253.12 29.0699 260.08 31.8999 265.2 37.5599C270.32 43.2199 272.88 50.8499 272.88 60.4599C272.88 64.0499 271.26 65.8499 268.03 65.8499H226.41C227.31 79.7699 234 86.7299 246.48 86.7299C249.8 86.7299 252.67 86.28 255.1 85.38C257.52 84.48 260.08 83.32 262.78 81.88C263.05 81.7 263.79 81.3199 265 80.7299C266.21 80.1499 267.22 79.85 268.03 79.85C269.29 79.85 270.32 80.3399 271.13 81.3299V81.3399ZM232.07 44.0299C228.93 47.3499 227.04 52.0199 226.41 58.0399H261.16C260.89 51.9299 259.34 47.2399 256.51 43.9599C253.68 40.6799 249.71 39.0399 244.59 39.0399C239.47 39.0399 235.21 40.6999 232.06 44.0199L232.07 44.0299Z" fill="white"/>
<path d="M321.55 34.87C321.55 36.85 321.06 38.33 320.07 39.32C319.08 40.31 317.37 40.89 314.95 41.07L310.91 41.47C305.25 42.01 301.05 43.98 298.32 47.4C295.58 50.81 294.21 54.94 294.21 59.79V90.64C294.21 92.79 293.58 94.41 292.32 95.49C291.06 96.57 289.44 97.11 287.47 97.11C285.5 97.11 283.85 96.57 282.55 95.49C281.25 94.41 280.6 92.79 280.6 90.64V35.82C280.6 33.76 281.25 32.16 282.55 31.04C283.85 29.92 285.49 29.36 287.47 29.36C289.27 29.36 290.77 29.92 291.98 31.04C293.19 32.16 293.8 33.71 293.8 35.69V42.16C295.6 38.21 298.2 35.2 301.61 33.14C305.02 31.08 308.88 29.86 313.19 29.5L315.08 29.36C319.39 29.09 321.55 30.93 321.55 34.88V34.87Z" fill="white"/>
<path d="M327.75 14C326.22 12.56 325.46 10.68 325.46 8.33997C325.46 5.99997 326.22 4.13997 327.75 2.74997C329.28 1.35997 331.34 0.659973 333.95 0.659973C336.56 0.659973 338.51 1.35997 340.08 2.74997C341.65 4.13997 342.44 6.00997 342.44 8.33997C342.44 10.67 341.68 12.56 340.15 14C338.62 15.44 336.56 16.15 333.95 16.15C331.34 16.15 329.28 15.43 327.75 14ZM329.03 95.49C327.73 94.41 327.08 92.79 327.08 90.64V35.95C327.08 33.79 327.73 32.16 329.03 31.03C330.33 29.91 331.97 29.35 333.95 29.35C335.93 29.35 337.54 29.91 338.8 31.03C340.06 32.15 340.69 33.79 340.69 35.95V90.64C340.69 92.79 340.06 94.41 338.8 95.49C337.54 96.57 335.92 97.11 333.95 97.11C331.98 97.11 330.33 96.57 329.03 95.49Z" fill="white"/>
<path d="M364.59 93.2C359.79 90.42 356.06 86.47 353.41 81.35C350.76 76.23 349.44 70.3 349.44 63.57C349.44 56.84 350.81 50.73 353.55 45.52C356.29 40.31 360.13 36.27 365.07 33.4C370.01 30.53 375.67 29.09 382.04 29.09C385.45 29.09 388.89 29.58 392.34 30.57C395.8 31.56 398.87 32.91 401.57 34.61C404.44 36.59 405.88 38.88 405.88 41.48C405.88 43.01 405.48 44.29 404.67 45.32C403.86 46.35 402.83 46.87 401.57 46.87C400.76 46.87 399.95 46.67 399.15 46.27C398.34 45.87 397.31 45.26 396.05 44.45C393.8 43.01 391.72 41.91 389.79 41.15C387.86 40.39 385.55 40 382.85 40C376.74 40 372.01 42.07 368.64 46.2C365.27 50.33 363.59 56.08 363.59 63.44C363.59 70.8 365.25 76.48 368.57 80.48C371.89 84.48 376.61 86.48 382.71 86.48C385.4 86.48 387.78 86.08 389.85 85.27C391.91 84.46 394.03 83.38 396.18 82.04C397.17 81.41 398.15 80.87 399.14 80.42C400.13 79.97 401.03 79.75 401.84 79.75C403.1 79.75 404.13 80.27 404.94 81.3C405.75 82.33 406.15 83.61 406.15 85.14C406.15 86.4 405.81 87.54 405.14 88.57C404.47 89.6 403.32 90.66 401.7 91.74C399.01 93.54 395.86 94.93 392.27 95.91C388.68 96.9 385.04 97.39 381.36 97.39C374.98 97.39 369.39 96 364.59 93.22V93.2Z" fill="white"/>
<path d="M417.39 95.49C416.09 94.41 415.44 92.79 415.44 90.64V7.39999C415.44 5.23999 416.09 3.60999 417.39 2.47999C418.69 1.35999 420.33 0.799988 422.31 0.799988C424.29 0.799988 425.9 1.35999 427.16 2.47999C428.42 3.59999 429.05 5.23999 429.05 7.39999V90.64C429.05 92.79 428.42 94.41 427.16 95.49C425.9 96.57 424.28 97.11 422.31 97.11C420.34 97.11 418.69 96.57 417.39 95.49Z" fill="white"/>
<path d="M495.36 81.3399C496.17 82.3299 496.57 83.5799 496.57 85.1099C496.57 87.7199 494.95 89.91 491.72 91.71C488.58 93.51 485.14 94.9 481.42 95.88C477.69 96.87 474.12 97.3599 470.71 97.3599C460.29 97.3599 452.08 94.33 446.06 88.27C440.04 82.21 437.04 73.9199 437.04 63.4199C437.04 56.6899 438.36 50.7099 441.01 45.4999C443.66 40.2899 447.39 36.2499 452.19 33.3799C456.99 30.5099 462.45 29.0699 468.56 29.0699C477.36 29.0699 484.32 31.8999 489.44 37.5599C494.56 43.2199 497.12 50.8499 497.12 60.4599C497.12 64.0499 495.5 65.8499 492.27 65.8499H450.65C451.55 79.7699 458.24 86.7299 470.72 86.7299C474.04 86.7299 476.92 86.28 479.34 85.38C481.76 84.48 484.32 83.32 487.02 81.88C487.29 81.7 488.03 81.3199 489.24 80.7299C490.45 80.1499 491.46 79.85 492.27 79.85C493.53 79.85 494.56 80.3399 495.37 81.3299L495.36 81.3399ZM456.3 44.0299C453.16 47.3499 451.27 52.0199 450.64 58.0399H485.39C485.12 51.9299 483.57 47.2399 480.74 43.9599C477.91 40.6799 473.94 39.0399 468.82 39.0399C463.7 39.0399 459.43 40.6999 456.29 44.0199L456.3 44.0299Z" fill="white"/>
<path d="M100.17 27.43C91.13 27.43 82.87 30.74 76.51 36.2V35.95C76.51 33.98 75.88 32.38 74.62 31.17C73.36 29.96 71.75 29.35 69.77 29.35C67.79 29.35 66.04 29.96 64.79 31.17C63.53 32.38 62.9 33.98 62.9 35.95V114.88C62.9 116.85 63.55 118.43 64.85 119.6C66.15 120.77 67.83 121.35 69.9 121.35C71.97 121.35 73.47 120.79 74.68 119.67C75.89 118.55 76.5 117.04 76.5 115.16V91.28C82.85 96.74 91.12 100.05 100.16 100.05C120.22 100.05 136.47 83.8 136.47 63.74C136.47 43.68 120.22 27.43 100.16 27.43H100.17ZM100.17 89.58C85.98 89.58 74.33 78.08 74.33 63.74C74.33 49.4 85.98 37.9 100.17 37.9C114.36 37.9 126.01 49.4 126.01 63.74C126.01 78.08 114.51 89.58 100.17 89.58Z" fill="white"/>
<path d="M100.13 89.88C114.594 89.88 126.32 78.1543 126.32 63.69C126.32 49.2257 114.594 37.5 100.13 37.5C85.6657 37.5 73.94 49.2257 73.94 63.69C73.94 78.1543 85.6657 89.88 100.13 89.88Z" fill="#A3DDF9"/>
</g>
<defs>
<clipPath id="clip0_11_118">
<rect width="498" height="122" fill="white"/>
</clipPath>
</defs>
</svg>
