<svg width="498" height="122" viewBox="0 0 498 122" fill="none" xmlns="http://www.w3.org/2000/svg">
<path d="M76.33 68.26L80.24 69.02C81 69.13 81.87 68.91 82.41 68.37L84.8 65.98C85.99 64.89 87.84 65.11 88.6 66.63L89.9 69.35C90.66 70.87 92.62 71.63 94.35 70.87C95.33 70.44 95.76 69.24 95.44 68.15L94.46 65C94.03 63.48 95.11 61.96 96.74 61.96H97.83C99.24 61.96 100.55 61.31 101.31 60.11L102.83 57.83C103.37 56.96 103.37 55.87 102.72 55.11L100.33 51.85C99.35 50.55 100 48.59 101.63 48.16L104.45 47.4C105.21 47.18 105.75 46.64 106.08 45.99L108.04 40.99C103.8 39.58 99.13 39.25 94.24 40.34C88.48 41.64 83.38 45.23 80.12 50.12C76.1 55.99 75.23 62.5 76.32 68.26H76.33Z" fill="#50B848"/>
<path d="M123.7 68.8C123.37 68.8 123.05 68.8 122.61 68.91L120.76 69.45C120 69.67 119.13 69.34 118.7 68.69L118.48 68.36C117.83 67.27 116.52 66.62 115.22 66.62C113.92 66.62 112.72 67.27 111.96 68.36L111.2 69.45C110.98 69.67 110.77 69.88 110.55 70.1L105.99 72.6C104.03 73.69 103.27 75.97 104.14 78.03L105.12 80.2C105.99 82.26 108.38 83.24 110.44 82.37L111.09 82.15C112.28 81.72 113.59 81.93 114.57 82.58L114.79 82.69C119.46 79.21 122.61 74.33 123.7 68.78V68.8Z" fill="#50B848"/>
<path d="M87.09 74.45C86.87 75.43 87.42 76.51 88.39 76.73L92.08 77.71C93.06 77.93 94.04 77.38 94.36 76.41C94.58 75.43 94.03 74.35 93.06 74.13L89.37 73.15C88.39 72.82 87.31 73.37 87.09 74.45Z" fill="#50B848"/>
<path d="M97.84 72.06C97.62 73.04 98.17 74.12 99.14 74.34C100.12 74.56 101.1 74.01 101.42 73.04L102.4 69.35C102.62 68.37 102.07 67.29 101.1 67.07C100.12 66.85 99.14 67.4 98.82 68.37L97.84 72.06Z" fill="#50B848"/>
<path d="M110.23 47.18C109.36 46.75 108.17 47.07 107.73 48.05L105.88 51.74C105.45 52.72 105.77 53.8 106.75 54.24C107.62 54.67 108.81 54.35 109.25 53.37L111.1 49.68C111.53 48.7 111.1 47.62 110.23 47.18Z" fill="#50B848"/>
</svg>
