<svg width="498" height="122" viewBox="0 0 498 122" fill="none" xmlns="http://www.w3.org/2000/svg">
<path d="M91 41.32L92.19 43.38C92.52 43.92 92.62 44.47 92.62 45.01V49.9C92.62 50.33 92.84 50.77 93.16 51.09C93.92 51.85 95.12 51.74 95.77 50.98L97.51 48.7C97.94 48.16 98.7 48.05 99.25 48.27L101.31 49.36C101.74 49.58 102.18 49.69 102.61 49.69C103.37 49.69 104.13 49.36 104.67 48.82L105.1 48.39C105.43 48.06 105.97 47.96 106.4 48.17L109.77 49.91C110.64 50.34 111.18 51.32 111.18 52.3C111.18 53.49 110.31 54.58 109.22 54.91L104.98 56C104.22 56.22 103.35 56.11 102.59 55.89L98.79 54.59C98.46 54.48 98.03 54.37 97.6 54.37C96.73 54.37 95.97 54.59 95.32 55.13L90.65 58.71C89.56 59.47 88.91 60.77 88.91 62.08V65.99C88.91 68.81 91.19 71.2 94.12 71.2H98.68C99.44 71.2 100.09 71.85 100.09 72.61V78.69C100.09 79.88 100.63 80.97 101.61 81.62C103.46 82.81 105.74 82.38 106.82 80.86L109.86 76.73C110.73 75.54 111.27 74.01 111.27 72.49V70.97C111.27 70.54 111.6 70.1 112.03 69.99L112.68 69.88C114.09 69.55 115.07 68.25 115.07 66.84C115.07 65.97 114.74 65.21 114.2 64.67L110.29 60.76C109.86 60.33 109.86 59.67 110.29 59.24C110.94 58.59 111.92 58.37 112.79 58.7L114.75 59.35C115.94 59.78 117.57 59.13 117.9 57.94C118.23 56.96 119.2 56.42 120.18 56.64L123.33 57.29C120.51 47.08 111.16 39.58 99.97 39.58C96.82 39.58 93.78 40.12 90.95 41.32H91Z" fill="#50B848"/>
</svg>
