<?xml version="1.0" encoding="UTF-8"?>
<svg id="Layer_1" data-name="Layer 1" xmlns="http://www.w3.org/2000/svg" viewBox="0 0 216 216">
  <defs>
    <style>
      .cls-1 {
        fill: #a3ddf9;
      }

      .cls-2 {
        fill: #50b848;
      }
    </style>
  </defs>
  <circle cx="108" cy="108" r="99.43"/>
  <circle class="cls-1" cx="108" cy="108" r="76.48"/>
  <path class="cls-2" d="m40.75,86.43l3.49,6.03c2.54,4.76,6.98,7.93,12.37,9.52l20.93,6.03c5.39,1.59,8.88,6.34,8.88,11.74v15.86c0,3.17,2.22,6.03,5.08,7.3,3.49,1.59,5.71,5.08,5.71,8.88v14.59c0,3.81,3.17,6.98,6.98,6.98,6.98-.63,12.69-5.39,14.27-12.05l.95-4.44c1.27-5.39,4.76-9.83,9.83-12.69l3.81-2.22c4.76-2.54,7.61-7.61,7.61-13.01v-4.12c0-4.12-1.59-7.93-4.44-10.78l-2.22-2.22c-2.85-2.85-6.66-4.44-10.47-4.44h-15.54c-3.49,0-6.98-.95-10.15-2.85l-12.05-6.66c-1.59-.95-2.54-2.22-3.17-3.81-.95-3.17.32-6.66,3.49-8.25l1.9-.95c2.22-1.27,4.76-1.27,7.3-.63l7.93,2.54c2.85.95,5.71,0,7.3-2.54s1.59-5.71-.32-7.61l-5.39-6.34c-3.17-3.49-2.85-8.88,0-12.37l6.66-7.61c2.54-3.17,3.17-7.61.95-11.1l-1.27-2.22h-3.49c-31.09.32-57.73,20.93-66.93,49.48Z"/>
  <path class="cls-2" d="m178.73,108c0-12.37-3.17-24.11-8.88-34.57l-9.83,3.81c-4.76,1.9-6.98,6.98-5.39,12.05l6.34,19.03c.95,3.17,3.49,5.39,6.98,6.34l10.47,2.54c.32-3.17.32-6.34.32-9.2h0Z"/>
</svg>