<?xml version="1.0" encoding="UTF-8"?>
<svg id="Layer_1" data-name="Layer 1" xmlns="http://www.w3.org/2000/svg" viewBox="0 0 216 216">
  <defs>
    <style>
      .cls-1 {
        fill: #a3ddf9;
      }

      .cls-2 {
        fill: #50b848;
      }
    </style>
  </defs>
  <circle cx="108" cy="108" r="99.43"/>
  <circle class="cls-1" cx="108" cy="108" r="76.48"/>
  <path class="cls-2" d="m111.49,37.27l-11.42,8.56c-1.9,1.27-2.85,3.49-2.85,5.71v3.17c0,2.22,1.9,4.12,4.12,4.12.95,0,1.59-.32,2.22-.63l14.27-9.52c.63-.32,1.59-.63,2.22-.63h.32c2.22,0,3.81,1.59,3.81,3.81,0,.95-.32,1.9-.95,2.85l-6.98,6.98c-1.9,1.9-4.12,3.17-6.66,4.12l-10.15,3.49c-1.59.32-2.54,2.22-2.54,3.49s-.32,2.85-1.27,4.12l-6.03,6.03c-2.22,2.22-3.49,5.08-3.49,8.25v1.59c0,5.71,4.76,10.15,10.15,10.15,3.81,0,7.3-2.22,8.88-5.39l1.27-2.85c.95-1.59,2.54-2.85,4.44-2.85,1.59,0,2.85.63,3.81,1.9l5.71,7.3c.63.95,1.9,1.59,3.17,1.59,2.85,0,4.76-3.17,3.49-5.71l-.32-.63c-1.27-2.54,0-5.39,2.54-6.03l7.93-2.85c1.9-.63,3.49-2.85,3.49-5.08-.32-3.81,2.54-6.98,6.34-6.98h9.83c2.85,0,5.39,2.54,5.39,5.39s-2.54,5.39-5.39,5.39h-6.98c-2.54,0-4.76.95-6.66,2.85l-1.59,1.59c-.63.63-.95,1.59-.95,2.85,0,2.22,1.59,3.81,3.81,3.81h3.81c1.9,0,4.12.95,5.39,2.22l2.22,2.22c.63.63.95,1.59.95,2.22,0,.95-.32,1.59-.95,2.22l-2.54,2.54c-1.27,1.27-1.9,2.85-1.9,4.76s.63,3.49,1.9,4.76l6.66,6.66c3.17,3.17,7.61,5.08,12.37,5.08h3.17c2.22-6.98,3.49-14.27,3.49-21.89-.32-38.06-30.13-68.83-67.56-70.73Z"/>
  <path class="cls-2" d="m169.85,141.94c-1.27-.95-2.85-1.27-4.44-1.27-1.9,0-4.12-.95-5.39-2.22l-4.76-4.76c-2.22-2.54-5.71-4.12-8.88-3.81-3.49.32-6.98-.95-9.83-3.17l-9.2-7.93c-3.81-3.17-8.56-5.08-13.32-5.08h-7.93c-4.12,0-7.93,1.27-11.42,3.49l-10.15,6.66c-5.71,3.81-9.2,10.15-9.2,17.13v2.22c0,5.39,2.22,10.78,6.03,14.59l6.03,6.03c2.54,2.54,6.34,4.12,10.15,4.12h7.61c5.39,0,9.52,5.08,7.61,10.78,24.74-1.9,45.99-16.18,57.09-36.79Z"/>
  <path class="cls-2" d="m84.84,55.35c-2.22-2.22-5.71-2.22-7.61,0l-10.78,10.78c-2.22,2.22-2.22,5.71,0,7.61,2.22,2.22,5.71,2.22,7.61,0l10.78-10.78c1.9-2.22,1.9-5.71,0-7.61Z"/>
</svg>