<?xml version="1.0" encoding="UTF-8"?>
<svg id="Layer_1" data-name="Layer 1" xmlns="http://www.w3.org/2000/svg" viewBox="0 0 216 216">
  <defs>
    <style>
      .cls-1 {
        fill: #a3ddf9;
      }

      .cls-2 {
        fill: #50b848;
      }
    </style>
  </defs>
  <circle cx="108" cy="108" r="99.43"/>
  <circle class="cls-1" cx="108" cy="108" r="76.48"/>
  <path class="cls-2" d="m81.36,42.66l3.49,6.03c.95,1.59,1.27,3.17,1.27,4.76v14.27c0,1.27.63,2.54,1.59,3.49,2.22,2.22,5.71,1.9,7.61-.32l5.08-6.66c1.27-1.59,3.49-1.9,5.08-1.27l6.03,3.17c1.27.63,2.54.95,3.81.95,2.22,0,4.44-.95,6.03-2.54l1.27-1.27c.95-.95,2.54-1.27,3.81-.63l9.83,5.08c2.54,1.27,4.12,4.12,4.12,6.98,0,3.49-2.54,6.66-5.71,7.61l-12.37,3.17c-2.22.63-4.76.32-6.98-.32l-11.1-3.81c-.95-.32-2.22-.63-3.49-.63-2.54,0-4.76.63-6.66,2.22l-13.64,10.47c-3.17,2.22-5.08,6.03-5.08,9.83v11.42c0,8.25,6.66,15.23,15.23,15.23h13.32c2.22,0,4.12,1.9,4.12,4.12v17.76c0,3.49,1.59,6.66,4.44,8.56,5.39,3.49,12.05,2.22,15.23-2.22l8.88-12.05c2.54-3.49,4.12-7.93,4.12-12.37v-4.44c0-1.27.95-2.54,2.22-2.85l1.9-.32c4.12-.95,6.98-4.76,6.98-8.88,0-2.54-.95-4.76-2.54-6.34l-11.42-11.42c-1.27-1.27-1.27-3.17,0-4.44,1.9-1.9,4.76-2.54,7.3-1.59l5.71,1.9c3.49,1.27,8.25-.63,9.2-4.12.95-2.85,3.81-4.44,6.66-3.81l9.2,1.9c-8.25-29.82-35.53-51.7-68.2-51.7-9.2,0-18.08,1.59-26.33,5.08Z"/>
</svg>